<?xml version="1.0" encoding="utf-8"?>
<!-- Generator: Adobe Illustrator 24.1.1, SVG Export Plug-In . SVG Version: 6.00 Build 0)  -->
<svg version="1.1"
	 id="Layer_1" inkscape:version="0.92.2 5c3e80d, 2017-08-06" sodipodi:docname="sigmobile-logo-white.svg" xmlns:cc="http://creativecommons.org/ns#" xmlns:dc="http://purl.org/dc/elements/1.1/" xmlns:inkscape="http://www.inkscape.org/namespaces/inkscape" xmlns:rdf="http://www.w3.org/1999/02/22-rdf-syntax-ns#" xmlns:sodipodi="http://sodipodi.sourceforge.net/DTD/sodipodi-0.dtd" xmlns:svg="http://www.w3.org/2000/svg"
	 xmlns="http://www.w3.org/2000/svg" xmlns:xlink="http://www.w3.org/1999/xlink" x="0px" y="0px" viewBox="0 0 94 94"
	 style="enable-background:new 0 0 94 94;" xml:space="preserve">
<style type="text/css">
	.st0{fill:url(#polygon3825_1_);}
	.st1{fill:#FFFFFF;}
	.st2{fill:url(#path3838_1_);}
</style>
<sodipodi:namedview  bordercolor="#666666" borderopacity="1" gridtolerance="10" guidetolerance="10" id="namedview3861" inkscape:current-layer="Layer_1" inkscape:cx="175.117" inkscape:cy="47" inkscape:pageopacity="0" inkscape:pageshadow="2" inkscape:window-height="815" inkscape:window-maximized="0" inkscape:window-width="1208" inkscape:window-x="186" inkscape:window-y="0" inkscape:zoom="2.5582895" objecttolerance="10" pagecolor="#ffffff" showgrid="false">
	</sodipodi:namedview>
<linearGradient id="polygon3825_1_" gradientUnits="userSpaceOnUse" x1="47" y1="96" x2="47" y2="2" gradientTransform="matrix(1 0 0 -1 0 96)">
	<stop  offset="0" style="stop-color:#E1DCE6"/>
	<stop  offset="9.110000e-02" style="stop-color:#C6C1DC"/>
	<stop  offset="0.3395" style="stop-color:#807DC4"/>
	<stop  offset="0.5635" style="stop-color:#4947B0"/>
	<stop  offset="0.7552" style="stop-color:#2121A2"/>
	<stop  offset="0.9069" style="stop-color:#090999"/>
	<stop  offset="1" style="stop-color:#000096"/>
</linearGradient>
<polygon id="polygon3825" class="st0" points="0,47 47,94 94,47 47,0 "/>
<path id="path3827" class="st1" d="M67,40.2H22.3c-0.5,0-0.9-0.4-0.9-0.9c0-0.5,0.4-0.9,0.9-0.9H67c0.5,0,0.9,0.4,0.9,0.9
	C67.9,39.8,67.5,40.2,67,40.2z"/>
<path id="path3829" class="st1" d="M67,47.9H30c-0.5,0-0.9-0.4-0.9-0.9c0-0.5,0.4-0.9,0.9-0.9h37c0.5,0,0.9,0.4,0.9,0.9
	C67.9,47.5,67.5,47.9,67,47.9z"/>
<path id="path3831" class="st1" d="M67,55.6H37.7c-0.5,0-0.9-0.4-0.9-0.9s0.4-0.9,0.9-0.9H67c0.5,0,0.9,0.4,0.9,0.9
	S67.5,55.6,67,55.6z"/>
<linearGradient id="path3838_1_" gradientUnits="userSpaceOnUse" x1="59.001" y1="36.31" x2="59.001" y2="61.69" gradientTransform="matrix(1 0 0 -1 0 96)">
	<stop  offset="0" style="stop-color:#E1DCE6"/>
	<stop  offset="1" style="stop-color:#000096"/>
</linearGradient>
<path id="path3838" class="st2" d="M46.3,47c0,7,5.7,12.7,12.7,12.7S71.7,54,71.7,47c0-7-5.7-12.7-12.7-12.7
	C52,34.3,46.3,40,46.3,47"/>
</svg>
